<?xml version="1.0" standalone="no"?>
<!DOCTYPE svg PUBLIC "-//W3C//DTD SVG 20010904//EN"
 "http://www.w3.org/TR/2001/REC-SVG-20010904/DTD/svg10.dtd">
<svg version="1.0" xmlns="http://www.w3.org/2000/svg"
 width="225.000000pt" height="225.000000pt" viewBox="0 0 225.000000 225.000000"
 preserveAspectRatio="xMidYMid meet">

<g transform="translate(0.000000,225.000000) scale(0.100000,-0.100000)"
fill="#000000" stroke="none">
<path d="M975 1960 c-3 -5 1 -10 9 -10 9 0 16 5 16 10 0 6 -4 10 -9 10 -6 0
-13 -4 -16 -10z"/>
<path d="M1062 1931 c-32 -40 -40 -57 -22 -46 6 3 10 1 10 -4 0 -6 -9 -11 -19
-11 -11 0 -23 -4 -26 -10 -3 -5 0 -10 8 -10 23 0 37 -46 32 -103 -5 -52 -5
-53 27 -65 l33 -13 -112 -44 c-62 -24 -126 -51 -143 -60 -16 -8 -30 -14 -30
-11 0 6 31 78 59 138 l22 46 -31 49 c-18 26 -29 39 -25 28 24 -65 23 -65 -53
-65 -60 0 -72 3 -77 19 -9 29 -54 33 -87 7 -84 -65 -179 -241 -214 -395 -48
-213 -17 -408 90 -569 36 -55 134 -164 113 -126 -4 7 30 19 98 34 65 14 105
28 105 35 0 7 7 16 16 19 13 5 15 2 11 -14 -3 -11 0 -20 5 -20 6 0 4 -8 -5
-18 -25 -28 -22 -45 7 -38 28 7 56 -1 56 -17 0 -6 -20 -37 -45 -68 l-46 -58
72 -21 c68 -21 72 -21 91 -4 16 15 21 16 28 4 5 -8 6 -18 4 -22 -10 -15 34 -8
47 8 12 14 14 14 21 -5 5 -16 16 -21 40 -21 64 0 224 29 288 52 65 24 65 24
63 61 -1 20 -10 51 -18 67 l-16 31 29 -15 c27 -14 31 -14 47 4 18 20 17 20
-21 21 -57 2 -108 8 -154 18 -3 1 3 6 13 12 9 6 15 14 12 19 -3 4 11 41 30 81
19 41 35 79 35 85 0 10 127 291 137 303 7 9 15 -10 49 -110 28 -81 33 -108 25
-121 -6 -10 -7 -18 -2 -18 5 0 11 5 13 12 3 8 15 7 44 -5 35 -14 36 -16 12
-16 -16 -1 -34 -11 -46 -26 -11 -14 -27 -25 -35 -25 -26 0 -67 -22 -60 -33 3
-5 9 -4 13 3 4 7 13 11 19 9 8 -3 6 -12 -7 -27 -20 -22 -42 -29 -42 -13 0 5
-6 11 -14 14 -10 4 -12 0 -9 -14 5 -17 3 -18 -21 -9 -15 5 -29 10 -30 10 -3 0
0 -58 3 -69 1 -2 8 2 16 9 18 15 36 4 28 -17 -4 -10 -2 -14 4 -10 6 4 13 0 16
-8 5 -11 12 -12 37 -4 16 6 30 15 30 20 0 16 28 10 34 -7 5 -12 10 -14 20 -5
7 6 16 8 19 4 12 -11 8 -23 -7 -23 -8 0 -16 -7 -20 -15 -3 -8 0 -15 7 -15 21
1 106 119 146 204 46 96 58 145 67 258 l7 84 -72 68 c-64 63 -84 89 -63 84 18
-4 102 25 102 36 -1 49 -111 254 -174 324 -26 29 -77 67 -75 55 4 -25 -7 -31
-83 -37 -59 -5 -87 -11 -95 -23 -11 -14 -13 -14 -18 -1 -6 15 -45 14 -45 -1 0
-3 16 -49 36 -102 l36 -96 72 -28 c142 -55 159 -64 148 -78 -5 -6 -25 -59 -43
-116 l-32 -103 -18 23 c-10 13 -19 31 -19 39 -1 8 -13 40 -28 70 -19 39 -32
54 -44 52 -10 -2 -18 2 -18 8 0 5 7 10 15 10 9 0 12 6 9 15 -5 12 -10 10 -25
-8 -18 -21 -18 -21 -19 -2 0 17 -2 17 -10 5 -5 -8 -10 -11 -10 -7 0 5 9 22 21
38 25 35 18 64 -19 83 -15 7 -85 32 -157 56 -71 23 -134 46 -138 50 -4 3 11
13 33 20 28 9 42 21 46 36 3 13 13 29 21 36 14 11 15 10 9 -10 -10 -30 8 -28
22 4 7 15 17 22 24 18 7 -4 8 -3 4 4 -4 6 -2 20 4 31 9 17 2 25 -52 65 -35 24
-74 56 -87 70 -14 14 -30 26 -36 26 -6 0 -26 -18 -43 -39z m81 -13 c15 -12 15
-15 -3 -36 -15 -18 -23 -21 -44 -12 -32 12 -33 33 -3 48 29 14 30 14 50 0z
m482 -118 c3 -5 1 -10 -4 -10 -6 0 -11 5 -11 10 0 6 2 10 4 10 3 0 8 -4 11
-10z m3 -102 c18 -18 14 -45 -8 -51 -17 -4 -19 0 -18 29 1 36 7 41 26 22z
m-840 -190 c-11 -21 -16 -23 -36 -13 -23 12 -23 12 10 28 39 19 44 16 26 -15z
m1002 15 c0 -5 -12 -16 -25 -26 -24 -17 -24 -17 -18 0 9 26 44 46 43 26z
m-1091 -53 c-7 -5 -19 -6 -28 -3 -13 4 -12 2 2 -10 14 -12 15 -16 4 -20 -8 -3
-20 0 -26 6 -8 8 -8 1 -1 -24 16 -55 10 -58 -11 -5 -11 27 -18 50 -17 51 2 1
17 7 33 12 34 11 66 6 44 -7z m25 -45 c-4 -10 0 -15 12 -15 14 0 15 -3 6 -12
-10 -10 -15 -10 -22 2 -13 20 -13 40 0 40 5 0 7 -7 4 -15z m-14 -117 c0 -7 -4
-19 -9 -27 -7 -11 -11 -10 -20 7 -15 28 -14 32 9 32 11 0 20 -6 20 -12z m40
-213 c49 -136 58 -156 83 -166 30 -13 29 -22 -3 -24 -11 -1 -22 6 -26 17 -9
30 -43 42 -63 24 -22 -20 -85 -21 -101 -1 -11 13 -8 15 21 16 72 1 73 12 5 47
l-64 32 42 105 c22 58 43 105 46 105 3 0 30 -70 60 -155z m290 -207 c0 -52 -4
-55 -46 -33 -22 11 -31 12 -43 2 -12 -10 -10 -13 12 -15 15 -2 32 -12 37 -23
9 -16 7 -21 -15 -29 -73 -28 -85 -23 -58 24 11 20 6 56 -8 56 -5 0 -9 -9 -9
-20 0 -22 -1 -23 -25 -14 -11 5 -13 9 -5 14 6 4 12 17 13 28 2 26 0 26 38 7
l30 -16 19 43 c10 24 23 47 27 51 14 15 33 -27 33 -75z m678 6 c2 -1 -8 -1
-21 0 -15 0 -23 6 -20 14 4 10 9 10 22 0 9 -7 17 -13 19 -14z m-959 -56 c-14
-27 -30 -39 -42 -31 -5 3 4 18 19 34 31 33 41 32 23 -3z m876 -9 c0 -28 -4
-35 -22 -37 -13 -2 -23 -9 -23 -15 0 -6 -7 -4 -17 5 -15 16 -14 19 13 52 35
42 49 40 49 -5z m48 21 c-3 -12 -8 -19 -11 -16 -5 6 5 36 12 36 2 0 2 -9 -1
-20z"/>
<path d="M925 1940 c28 -12 37 -12 30 0 -3 6 -16 10 -28 9 -21 0 -21 -1 -2 -9z"/>
<path d="M788 1889 c-23 -13 -23 -32 -1 -27 9 2 17 11 19 21 1 9 2 17 1 17 -1
0 -10 -5 -19 -11z"/>
<path d="M714 1845 c-16 -12 -16 -14 -3 -15 9 0 22 7 29 15 16 19 0 19 -26 0z"/>
<path d="M980 1796 c0 -20 40 -32 51 -15 9 16 11 15 -23 23 -21 5 -28 3 -28
-8z"/>
<path d="M1290 1786 c10 -13 11 -20 4 -23 -6 -2 -20 -11 -30 -19 -16 -13 -15
-13 13 1 18 8 39 15 47 15 24 0 26 15 4 29 -11 7 -17 8 -13 2 9 -15 -8 -14
-25 2 -11 9 -11 8 0 -7z"/>
<path d="M920 1765 c-17 -21 -7 -29 25 -21 22 6 25 9 15 21 -16 19 -24 19 -40
0z"/>
<path d="M1843 1399 c-6 -6 -9 -17 -6 -25 3 -9 -4 -12 -26 -9 -28 4 -30 2 -17
-11 8 -8 19 -14 23 -13 24 4 43 -3 43 -16 0 -8 4 -15 8 -15 9 0 0 86 -10 95
-2 3 -9 0 -15 -6z"/>
<path d="M1450 745 c0 -8 5 -15 10 -15 6 0 10 7 10 15 0 8 -4 15 -10 15 -5 0
-10 -7 -10 -15z"/>
<path d="M1631 723 c-1 -7 -8 -13 -16 -13 -8 0 -15 -4 -15 -10 0 -5 -7 -10
-15 -10 -18 0 -19 -9 -2 -31 11 -15 15 -15 41 8 24 20 27 28 18 46 -6 12 -11
16 -11 10z"/>
<path d="M701 664 c-17 -14 -28 -30 -25 -35 8 -14 85 -51 92 -45 3 3 0 6 -8 6
-9 0 -10 4 -2 13 7 8 7 18 2 27 -6 8 -10 25 -10 38 0 29 -11 28 -49 -4z"/>
<path d="M1516 614 c-8 -20 0 -32 14 -18 5 5 5 15 1 22 -6 11 -10 10 -15 -4z"/>
</g>
</svg>
